<svg width="16" height="20" viewBox="0 0 16 20" fill="none" xmlns="http://www.w3.org/2000/svg">
<path d="M5.5 10C5.5 8.625 6.59375 7.5 8 7.5C9.375 7.5 10.5 8.625 10.5 10C10.5 11.4062 9.375 12.5 8 12.5C6.59375 12.5 5.5 11.4062 5.5 10ZM8 2C8.53125 2 9 2.46875 9 3V4.09375C11.5 4.53125 13.4688 6.5 13.9062 9H15C15.5312 9 16 9.46875 16 10C16 10.5625 15.5312 11 15 11H13.9062C13.4688 13.5312 11.5 15.5 9 15.9375V17C9 17.5625 8.53125 18 8 18C7.4375 18 7 17.5625 7 17V15.9375C4.46875 15.5 2.5 13.5312 2.0625 11H1C0.4375 11 0 10.5625 0 10C0 9.46875 0.4375 9 1 9H2.0625C2.5 6.5 4.46875 4.53125 7 4.09375V3C7 2.46875 7.4375 2 8 2ZM4 10C4 12.2188 5.78125 14 8 14C10.1875 14 12 12.2188 12 10C12 7.8125 10.1875 6 8 6C5.78125 6 4 7.8125 4 10Z" fill="#3E3232" fill-opacity="0.5"/>
</svg>
