<svg width="14" height="13" viewBox="0 0 14 13" fill="none" xmlns="http://www.w3.org/2000/svg">
<path d="M3.96484 4.8125C3.47266 4.8125 3.08984 5.22266 3.08984 5.6875C3.08984 6.17969 3.47266 6.5625 3.96484 6.5625C4.42969 6.5625 4.8125 6.17969 4.8125 5.6875C4.8125 5.22266 4.42969 4.8125 3.96484 4.8125ZM7.02734 4.8125C6.53516 4.8125 6.15234 5.19531 6.15234 5.6875C6.15234 6.15234 6.5625 6.53516 7.02734 6.53516C7.46484 6.53516 7.875 6.125 7.875 5.6875C7.875 5.22266 7.49219 4.8125 7.02734 4.8125ZM10.0898 4.8125C9.59766 4.8125 9.21484 5.22266 9.21484 5.6875C9.21484 6.17969 9.625 6.5625 10.0898 6.5625C10.5547 6.5625 10.9375 6.17969 10.9375 5.6875C10.9648 5.22266 10.5547 4.8125 10.0898 4.8125ZM7.02734 0C3.14453 0 0.0273438 2.54297 0.0273438 5.6875C0.0273438 6.97266 0.574219 8.17578 1.47656 9.13281C1.06641 10.1992 0.21875 11.1289 0.21875 11.1289C0.0273438 11.3203 0 11.5938 0.0820312 11.8398C0.164062 12.1133 0.410156 12.25 0.683594 12.25C2.35156 12.25 3.66406 11.5664 4.48438 10.9922C5.25 11.2383 6.125 11.375 7.02734 11.375C10.8828 11.375 14 8.83203 14 5.71484C14 2.59766 10.8828 0 7.02734 0ZM7.02734 10.0625C6.28906 10.0625 5.55078 9.95312 4.86719 9.73438L4.23828 9.54297L3.71875 9.92578C3.33594 10.1992 2.78906 10.5 2.13281 10.7188C2.35156 10.3906 2.54297 10.0078 2.67969 9.625L2.98047 8.85938L2.40625 8.25781C1.91406 7.73828 1.33984 6.86328 1.33984 5.6875C1.33984 3.28125 3.88281 1.3125 7 1.3125C10.1172 1.3125 12.6602 3.28125 12.6602 5.6875C12.6602 8.12109 10.1445 10.0625 7.02734 10.0625Z" fill="#3E3232" fill-opacity="0.5"/>
</svg>
