<svg width="18" height="16" viewBox="0 0 18 16" fill="none" xmlns="http://www.w3.org/2000/svg">
<path d="M6.09766 7.75C4.18359 7.75 2.625 6.19141 2.625 4.25C2.625 2.33594 4.18359 0.75 6.09766 0.75C8.01172 0.75 9.59766 2.33594 9.59766 4.25C9.59766 6.19141 8.01172 7.75 6.09766 7.75ZM7.49219 9.0625C8.77734 9.0625 9.92578 9.58203 10.7734 10.4023L9.51562 11.6328C9.32422 11.8242 9.21484 12.0703 9.16016 12.3438L8.75 14.2852C8.72266 14.4492 8.72266 14.6133 8.77734 14.75H0.929688C0.410156 14.75 0 14.3398 0 13.8203C0 11.1953 2.10547 9.0625 4.73047 9.0625H7.49219ZM10.1445 12.2617L13.5625 8.84375L15.5312 10.8125L12.1133 14.2305C12.0312 14.3125 11.9492 14.3398 11.8672 14.3672L9.89844 14.75C9.73438 14.8047 9.57031 14.6406 9.625 14.4766L10.0078 12.5078C10.0352 12.4258 10.0625 12.3438 10.1445 12.2617ZM17.1992 7.75C17.582 8.13281 17.582 8.76172 17.1992 9.14453L16.1602 10.1836L14.1914 8.21484L15.2305 7.17578C15.6133 6.79297 16.2422 6.79297 16.625 7.17578L17.1992 7.75Z" fill="#F81539" fill-opacity="0.75"/>
</svg>
