<svg width="21" height="21" viewBox="0 0 21 21" fill="none" xmlns="http://www.w3.org/2000/svg">
<path d="M14.5703 1.09375C15.6641 0 17.4219 0 18.5156 1.09375L19.0234 1.60156C20.1172 2.69531 20.1172 4.45312 19.0234 5.54688L11.2891 13.2812C10.9766 13.5938 10.5469 13.8672 10.0781 13.9844L6.17188 15.1172C5.85938 15.1953 5.50781 15.1172 5.27344 14.8438C5 14.6094 4.92188 14.2578 5 13.9453L6.13281 10.0391C6.25 9.57031 6.52344 9.14062 6.83594 8.82812L14.5703 1.09375ZM17.1875 2.42188C16.8359 2.07031 16.25 2.07031 15.8984 2.42188L14.7266 3.55469L16.5625 5.39062L17.6953 4.21875C18.0469 3.86719 18.0469 3.28125 17.6953 2.92969L17.1875 2.42188ZM7.92969 10.5469L7.26562 12.8516L9.57031 12.1875C9.72656 12.1484 9.84375 12.0703 9.96094 11.9531L15.2344 6.67969L13.4375 4.88281L8.16406 10.1562C8.04688 10.2734 7.96875 10.3906 7.92969 10.5469ZM7.8125 2.61719C8.32031 2.61719 8.75 3.04688 8.75 3.55469C8.75 4.10156 8.32031 4.49219 7.8125 4.49219H3.4375C2.53906 4.49219 1.875 5.19531 1.875 6.05469V16.6797C1.875 17.5781 2.53906 18.2422 3.4375 18.2422H14.0625C14.9219 18.2422 15.625 17.5781 15.625 16.6797V12.3047C15.625 11.7969 16.0156 11.3672 16.5625 11.3672C17.0703 11.3672 17.5 11.7969 17.5 12.3047V16.6797C17.5 18.5938 15.9375 20.1172 14.0625 20.1172H3.4375C1.52344 20.1172 0 18.5938 0 16.6797V6.05469C0 4.17969 1.52344 2.61719 3.4375 2.61719H7.8125Z" fill="#3E3232" fill-opacity="0.5"/>
</svg>
