<svg width="23" height="20" viewBox="0 0 23 20" fill="none" xmlns="http://www.w3.org/2000/svg">
<path d="M6.28906 10C6.28906 7.26562 8.51562 5 11.2891 5C14.0234 5 16.2891 7.26562 16.2891 10C16.2891 12.7734 14.0234 15 11.2891 15C8.51562 15 6.28906 12.7734 6.28906 10ZM11.2891 13.125C13.0078 13.125 14.4141 11.7578 14.4141 10C14.4141 8.28125 13.0078 6.875 11.2891 6.875C11.25 6.875 11.2109 6.875 11.1719 6.875C11.25 7.10938 11.2891 7.30469 11.2891 7.5C11.2891 8.90625 10.1562 10 8.78906 10C8.55469 10 8.35938 10 8.16406 9.92188C8.16406 9.96094 8.16406 10 8.16406 10C8.16406 11.7578 9.53125 13.125 11.2891 13.125ZM3.75 4.41406C5.58594 2.69531 8.125 1.25 11.2891 1.25C14.4141 1.25 16.9531 2.69531 18.7891 4.41406C20.625 6.09375 21.8359 8.125 22.4219 9.53125C22.5391 9.84375 22.5391 10.1953 22.4219 10.5078C21.8359 11.875 20.625 13.9062 18.7891 15.625C16.9531 17.3438 14.4141 18.75 11.2891 18.75C8.125 18.75 5.58594 17.3438 3.75 15.625C1.91406 13.9062 0.703125 11.875 0.117188 10.5078C0 10.1953 0 9.84375 0.117188 9.53125C0.703125 8.125 1.91406 6.09375 3.75 4.41406ZM11.2891 3.125C8.71094 3.125 6.64062 4.29688 5.03906 5.78125C3.51562 7.1875 2.5 8.82812 1.95312 10C2.5 11.1719 3.51562 12.8516 5.03906 14.2578C6.64062 15.7422 8.71094 16.875 11.2891 16.875C13.8281 16.875 15.8984 15.7422 17.5 14.2578C19.0234 12.8516 20.0391 11.1719 20.5859 10C20.0391 8.82812 19.0234 7.1875 17.5 5.78125C15.8984 4.29688 13.8281 3.125 11.2891 3.125Z" fill="#3E3232" fill-opacity="0.5"/>
</svg>
