<svg width="16" height="20" viewBox="0 0 16 20" fill="none" xmlns="http://www.w3.org/2000/svg">
<path d="M6 4H12.1562L13 4.84375V7H15V4.4375C15 4.15625 14.875 3.90625 14.6875 3.71875L13.2812 2.3125C13.0938 2.125 12.8438 2 12.5625 2H5C4.4375 2 4 2.46875 4 3V7H6V4ZM2 6H1C0.4375 6 0 6.46875 0 7V17C0 17.5625 0.4375 18 1 18H2C2.53125 18 3 17.5625 3 17V7C3 6.46875 2.53125 6 2 6ZM15 8H4V17C4 17.5625 4.4375 18 5 18H15C15.5312 18 16 17.5625 16 17V9C16 8.46875 15.5312 8 15 8ZM9 15.5C9 15.7812 8.75 16 8.5 16H7.5C7.21875 16 7 15.7812 7 15.5V14.5C7 14.25 7.21875 14 7.5 14H8.5C8.75 14 9 14.25 9 14.5V15.5ZM9 11.5C9 11.7812 8.75 12 8.5 12H7.5C7.21875 12 7 11.7812 7 11.5V10.5C7 10.25 7.21875 10 7.5 10H8.5C8.75 10 9 10.25 9 10.5V11.5ZM13 15.5C13 15.7812 12.75 16 12.5 16H11.5C11.2188 16 11 15.7812 11 15.5V14.5C11 14.25 11.2188 14 11.5 14H12.5C12.75 14 13 14.25 13 14.5V15.5ZM13 11.5C13 11.7812 12.75 12 12.5 12H11.5C11.2188 12 11 11.7812 11 11.5V10.5C11 10.25 11.2188 10 11.5 10H12.5C12.75 10 13 10.25 13 10.5V11.5Z" fill="#3E3232" fill-opacity="0.5"/>
</svg>
