<svg width="16" height="20" viewBox="0 0 16 20" fill="none" xmlns="http://www.w3.org/2000/svg">
<path d="M7.25 5.75C7.25 5.34375 7.5625 5 8 5C8.40625 5 8.75 5.34375 8.75 5.75V9.625L11.4062 11.375C11.75 11.625 11.8438 12.0938 11.5938 12.4375C11.375 12.7812 10.9062 12.875 10.5625 12.625L7.5625 10.625C7.375 10.5 7.25 10.25 7.25 10V5.75ZM8 2C12.4062 2 16 5.59375 16 10C16 14.4375 12.4062 18 8 18C3.5625 18 0 14.4375 0 10C0 5.59375 3.5625 2 8 2ZM1.5 10C1.5 13.5938 4.40625 16.5 8 16.5C11.5625 16.5 14.5 13.5938 14.5 10C14.5 6.4375 11.5625 3.5 8 3.5C4.40625 3.5 1.5 6.4375 1.5 10Z" fill="#3E3232" fill-opacity="0.5"/>
</svg>
