<svg width="16" height="16" viewBox="0 0 16 16" fill="none" xmlns="http://www.w3.org/2000/svg">
<path d="M5.15625 4.03125C5.86719 4.03125 6.46875 4.63281 6.46875 5.34375C6.46875 6.08203 5.86719 6.65625 5.15625 6.65625C4.41797 6.65625 3.84375 6.08203 3.84375 5.34375C3.84375 4.63281 4.41797 4.03125 5.15625 4.03125ZM13.2227 1.625C14.207 1.625 14.9727 2.41797 14.9727 3.375V12.125C14.9727 13.1094 14.1797 13.875 13.2227 13.875H2.72266C1.76562 13.875 0.972656 13.1094 0.972656 12.125V3.375C0.972656 2.41797 1.76562 1.625 2.72266 1.625H13.2227ZM13.6602 11.9609V3.375C13.6602 3.15625 13.4688 2.9375 13.2227 2.9375H2.72266C2.50391 2.9375 2.28516 3.15625 2.28516 3.375L2.3125 12.125L4.36328 9.55469C4.47266 9.44531 4.60938 9.36328 4.77344 9.36328C4.9375 9.36328 5.07422 9.44531 5.18359 9.55469L6.19531 10.8125L9.09375 6.875C9.20312 6.73828 9.33984 6.65625 9.53125 6.65625C9.69531 6.65625 9.83203 6.73828 9.91406 6.875L13.6602 11.9609Z" fill="#3E3232" fill-opacity="0.5"/>
</svg>
