<svg width="18" height="16" viewBox="0 0 18 16" fill="none" xmlns="http://www.w3.org/2000/svg">
<path d="M4.62109 4.35938C6.15234 2.82812 8.66797 2.82812 10.1992 4.35938C11.5664 5.72656 11.7578 7.88672 10.6367 9.47266L10.6094 9.5C10.3359 9.91016 9.78906 9.99219 9.37891 9.71875C8.99609 9.41797 8.88672 8.87109 9.1875 8.48828L9.21484 8.46094C9.84375 7.55859 9.73438 6.38281 8.96875 5.61719C8.12109 4.74219 6.72656 4.74219 5.85156 5.61719L2.78906 8.67969C1.91406 9.52734 1.91406 10.9219 2.78906 11.7969C3.55469 12.5625 4.75781 12.6445 5.63281 12.043L5.66016 11.9883C6.07031 11.7148 6.61719 11.7969 6.89062 12.207C7.16406 12.5898 7.08203 13.1367 6.69922 13.4375L6.64453 13.4648C5.05859 14.5859 2.92578 14.3945 1.55859 13.0273C0 11.4961 0 8.98047 1.55859 7.44922L4.62109 4.35938ZM12.6875 11.1406C11.1562 12.6992 8.64062 12.6992 7.10938 11.1406C5.74219 9.77344 5.55078 7.64062 6.67188 6.05469L6.69922 6.02734C6.97266 5.61719 7.51953 5.53516 7.92969 5.80859C8.3125 6.08203 8.42188 6.62891 8.12109 7.03906L8.09375 7.06641C7.46484 7.94141 7.57422 9.14453 8.33984 9.91016C9.1875 10.7852 10.582 10.7852 11.457 9.91016L14.5195 6.84766C15.3945 5.97266 15.3945 4.57812 14.5195 3.73047C13.7539 2.96484 12.5508 2.85547 11.6758 3.48438L11.6484 3.51172C11.2383 3.8125 10.6914 3.70312 10.418 3.32031C10.1445 2.9375 10.2266 2.39062 10.6094 2.08984L10.6641 2.0625C12.25 0.941406 14.3828 1.13281 15.75 2.5C17.3086 4.03125 17.3086 6.54688 15.75 8.07812L12.6875 11.1406Z" fill="#3E3232" fill-opacity="0.5"/>
</svg>
