<svg width="118" height="17" viewBox="0 0 118 17" fill="none" xmlns="http://www.w3.org/2000/svg">
<path d="M1.47168 0.225586H4.2002L8.21777 11.709L12.2354 0.225586H14.9639L9.31348 15.8662H7.12207L1.47168 0.225586ZM0 0.225586H2.71777L3.21191 11.4189V15.8662H0V0.225586ZM13.7178 0.225586H16.4463V15.8662H13.2236V11.4189L13.7178 0.225586ZM29.7666 13.3525V15.8662H21.4414V13.3525H29.7666ZM22.4941 0.225586V15.8662H19.2715V0.225586H22.4941ZM28.6816 6.5957V9.04492H21.4414V6.5957H28.6816ZM29.7559 0.225586V2.75H21.4414V0.225586H29.7559ZM44.043 7.69141V13.8896C43.7995 14.1833 43.4235 14.502 42.915 14.8457C42.4066 15.1823 41.7513 15.4723 40.9492 15.7158C40.1471 15.9593 39.1768 16.0811 38.0381 16.0811C37.0283 16.0811 36.1081 15.9163 35.2773 15.5869C34.4466 15.2503 33.7305 14.7598 33.1289 14.1152C32.5345 13.4707 32.0762 12.6829 31.7539 11.752C31.4316 10.8138 31.2705 9.74316 31.2705 8.54004V7.5625C31.2705 6.35938 31.4245 5.28874 31.7324 4.35059C32.0475 3.41243 32.4951 2.62109 33.0752 1.97656C33.6553 1.33203 34.3464 0.841471 35.1484 0.504883C35.9505 0.168294 36.8421 0 37.8232 0C39.1839 0 40.3011 0.222005 41.1748 0.666016C42.0485 1.10286 42.7145 1.71159 43.1729 2.49219C43.6383 3.26562 43.9248 4.15365 44.0322 5.15625H40.9062C40.8275 4.6263 40.6771 4.16439 40.4551 3.77051C40.2331 3.37663 39.9144 3.06868 39.499 2.84668C39.0908 2.62467 38.5609 2.51367 37.9092 2.51367C37.3721 2.51367 36.8923 2.62467 36.4697 2.84668C36.0544 3.06152 35.7035 3.38021 35.417 3.80273C35.1305 4.22526 34.9121 4.74805 34.7617 5.37109C34.6113 5.99414 34.5361 6.71745 34.5361 7.54102V8.54004C34.5361 9.35645 34.6149 10.0798 34.7725 10.71C34.93 11.333 35.1628 11.8594 35.4707 12.2891C35.7858 12.7116 36.1725 13.0303 36.6309 13.2451C37.0892 13.46 37.6227 13.5674 38.2314 13.5674C38.7399 13.5674 39.1624 13.5244 39.499 13.4385C39.8428 13.3525 40.1185 13.2487 40.3262 13.127C40.541 12.998 40.7057 12.8763 40.8203 12.7617V9.99023H37.877V7.69141H44.043ZM53.002 2.90039L48.748 15.8662H45.3213L51.1328 0.225586H53.3135L53.002 2.90039ZM56.5361 15.8662L52.2715 2.90039L51.9277 0.225586H54.1299L59.9736 15.8662H56.5361ZM56.3428 10.0439V12.5684H48.082V10.0439H56.3428ZM61.3809 14.373C61.3809 13.9147 61.5384 13.5316 61.8535 13.2236C62.1758 12.9157 62.6019 12.7617 63.1318 12.7617C63.6618 12.7617 64.0843 12.9157 64.3994 13.2236C64.7217 13.5316 64.8828 13.9147 64.8828 14.373C64.8828 14.8314 64.7217 15.2145 64.3994 15.5225C64.0843 15.8304 63.6618 15.9844 63.1318 15.9844C62.6019 15.9844 62.1758 15.8304 61.8535 15.5225C61.5384 15.2145 61.3809 14.8314 61.3809 14.373ZM70.6406 6.72461V15.8662H67.5469V4.24316H70.4473L70.6406 6.72461ZM70.1895 9.64648H69.3516C69.3516 8.78711 69.4626 8.01367 69.6846 7.32617C69.9066 6.63151 70.2181 6.04069 70.6191 5.55371C71.0202 5.05957 71.4964 4.68359 72.0479 4.42578C72.6064 4.16081 73.2295 4.02832 73.917 4.02832C74.4613 4.02832 74.959 4.1071 75.4102 4.26465C75.8613 4.4222 76.248 4.67285 76.5703 5.0166C76.8997 5.36035 77.1504 5.8151 77.3223 6.38086C77.5013 6.94661 77.5908 7.6377 77.5908 8.4541V15.8662H74.4756V8.44336C74.4756 7.92773 74.404 7.52669 74.2607 7.24023C74.1175 6.95378 73.9062 6.75326 73.627 6.63867C73.3548 6.51693 73.0182 6.45605 72.6172 6.45605C72.2018 6.45605 71.8402 6.53841 71.5322 6.70312C71.2314 6.86784 70.9808 7.09701 70.7803 7.39062C70.5869 7.67708 70.4401 8.01367 70.3398 8.40039C70.2396 8.78711 70.1895 9.20247 70.1895 9.64648ZM85.293 16.0811C84.3906 16.0811 83.5814 15.9378 82.8652 15.6514C82.1491 15.3577 81.5404 14.9531 81.0391 14.4375C80.5449 13.9219 80.1654 13.3239 79.9004 12.6436C79.6354 11.9561 79.5029 11.2256 79.5029 10.4521V10.0225C79.5029 9.1416 79.6283 8.33594 79.8789 7.60547C80.1296 6.875 80.4876 6.24121 80.9531 5.7041C81.4258 5.16699 81.9987 4.75521 82.6719 4.46875C83.3451 4.17513 84.1042 4.02832 84.9492 4.02832C85.7728 4.02832 86.5033 4.16439 87.1406 4.43652C87.778 4.70866 88.3115 5.09538 88.7412 5.59668C89.1781 6.09798 89.5075 6.69954 89.7295 7.40137C89.9515 8.09603 90.0625 8.86947 90.0625 9.72168V11.0107H80.8242V8.94824H87.0225V8.71191C87.0225 8.28223 86.9437 7.89909 86.7861 7.5625C86.6357 7.21875 86.4066 6.94661 86.0986 6.74609C85.7907 6.54557 85.3968 6.44531 84.917 6.44531C84.5088 6.44531 84.1579 6.53483 83.8643 6.71387C83.5706 6.8929 83.3307 7.14355 83.1445 7.46582C82.9655 7.78809 82.8294 8.16764 82.7363 8.60449C82.6504 9.03418 82.6074 9.50684 82.6074 10.0225V10.4521C82.6074 10.9176 82.6719 11.3473 82.8008 11.7412C82.9368 12.1351 83.1266 12.4753 83.3701 12.7617C83.6208 13.0482 83.9215 13.2702 84.2725 13.4277C84.6305 13.5853 85.0352 13.6641 85.4863 13.6641C86.0449 13.6641 86.5641 13.5566 87.0439 13.3418C87.5309 13.1198 87.9499 12.7868 88.3008 12.3428L89.8047 13.9756C89.5612 14.3265 89.2282 14.6631 88.8057 14.9854C88.3903 15.3076 87.889 15.5726 87.3018 15.7803C86.7145 15.9808 86.0449 16.0811 85.293 16.0811ZM95.1436 12.8584L97.5605 4.24316H99.5264L98.8926 7.62695L96.4756 15.8662H94.832L95.1436 12.8584ZM93.9189 4.24316L95.6484 12.8477L95.8096 15.8662H93.876L90.9326 4.24316H93.9189ZM101.739 12.708L103.426 4.24316H106.423L103.479 15.8662H101.557L101.739 12.708ZM99.7949 4.24316L102.201 12.7939L102.534 15.8662H100.88L98.4629 7.6377L97.8506 4.24316H99.7949ZM114.265 12.6543C114.265 12.4323 114.2 12.2318 114.071 12.0527C113.942 11.8737 113.702 11.709 113.352 11.5586C113.008 11.401 112.51 11.2578 111.858 11.1289C111.271 11 110.723 10.8389 110.215 10.6455C109.714 10.445 109.277 10.2051 108.904 9.92578C108.539 9.64648 108.253 9.31706 108.045 8.9375C107.837 8.55078 107.733 8.11035 107.733 7.61621C107.733 7.12923 107.837 6.6709 108.045 6.24121C108.26 5.81152 108.564 5.43197 108.958 5.10254C109.359 4.76595 109.846 4.50456 110.419 4.31836C110.999 4.125 111.651 4.02832 112.374 4.02832C113.384 4.02832 114.25 4.18945 114.974 4.51172C115.704 4.83398 116.263 5.27799 116.649 5.84375C117.043 6.40234 117.24 7.03971 117.24 7.75586H114.146C114.146 7.45508 114.082 7.18652 113.953 6.9502C113.831 6.70671 113.638 6.51693 113.373 6.38086C113.115 6.23763 112.779 6.16602 112.363 6.16602C112.02 6.16602 111.722 6.22689 111.472 6.34863C111.221 6.46322 111.028 6.62077 110.892 6.82129C110.763 7.01465 110.698 7.22949 110.698 7.46582C110.698 7.64486 110.734 7.80599 110.806 7.94922C110.884 8.08529 111.01 8.21061 111.182 8.3252C111.354 8.43978 111.576 8.5472 111.848 8.64746C112.127 8.74056 112.471 8.8265 112.879 8.90527C113.717 9.07715 114.465 9.30273 115.124 9.58203C115.783 9.85417 116.306 10.2266 116.692 10.6992C117.079 11.1647 117.272 11.777 117.272 12.5361C117.272 13.0518 117.158 13.5244 116.929 13.9541C116.7 14.3838 116.37 14.7598 115.94 15.082C115.511 15.3971 114.995 15.6442 114.394 15.8232C113.799 15.9951 113.13 16.0811 112.385 16.0811C111.303 16.0811 110.387 15.8877 109.635 15.501C108.89 15.1143 108.324 14.6237 107.938 14.0293C107.558 13.4277 107.368 12.8118 107.368 12.1816H110.301C110.315 12.6042 110.423 12.9443 110.623 13.2021C110.831 13.46 111.092 13.6462 111.407 13.7607C111.729 13.8753 112.077 13.9326 112.449 13.9326C112.85 13.9326 113.183 13.8789 113.448 13.7715C113.713 13.6569 113.914 13.5065 114.05 13.3203C114.193 13.127 114.265 12.9049 114.265 12.6543Z" fill="#FC4308"/>
</svg>
