<svg width="120" height="96" viewBox="0 0 120 96" fill="none" xmlns="http://www.w3.org/2000/svg">
<path d="M95.8125 18H63.5625L54.375 9.5625C52.125 7.3125 49.125 6 45.9375 6H23.8125C17.0625 6 11.8125 11.4375 11.8125 18V78C11.8125 84.75 17.0625 90 23.8125 90H95.8125C102.375 90 107.812 84.75 107.812 78V30C107.812 23.4375 102.562 18 95.8125 18ZM98.8125 78C98.8125 79.6875 97.3125 81 95.8125 81H23.8125C22.125 81 20.8125 79.6875 20.8125 78V18C20.8125 16.5 22.125 15 23.8125 15H45.75C46.5 15 47.25 15.375 47.8125 15.9375L59.8125 27H95.8125C97.3125 27 98.8125 28.5 98.8125 30V78Z" fill="#3E3232" fill-opacity="0.25"/>
</svg>
