<svg width="131" height="131" viewBox="0 0 131 131" fill="none" xmlns="http://www.w3.org/2000/svg">
<rect width="131" height="131" rx="12" fill="#F5F5F5"/>
<rect x="10.5" y="10.5" width="110" height="110" rx="11.5" fill="#F5F5F5" stroke="#E1E1E1" stroke-dasharray="12 12"/>
<path d="M56.25 53.25C53.7188 53.25 51.75 55.3125 51.75 57.75C51.75 60.2812 53.7188 62.25 56.25 62.25C58.6875 62.25 60.75 60.2812 60.75 57.75C60.75 55.3125 58.6875 53.25 56.25 53.25ZM83.9062 45H47.9062C44.625 45 41.9062 47.7188 41.9062 51V81C41.9062 84.375 44.625 87 47.9062 87H83.9062C87.1875 87 89.9062 84.375 89.9062 81V51C89.9062 47.7188 87.2812 45 83.9062 45ZM85.4062 80.4375L72.5625 63C72.2812 62.5312 71.8125 62.25 71.25 62.25C70.5938 62.25 70.125 62.5312 69.75 63L59.8125 76.5L56.3438 72.1875C55.9688 71.8125 55.5 71.5312 54.9375 71.5312C54.375 71.5312 53.9062 71.8125 53.5312 72.1875L46.5 81L46.4062 51C46.4062 50.25 47.1562 49.5 47.9062 49.5H83.9062C84.75 49.5 85.4062 50.25 85.4062 51V80.4375Z" fill="#3E3232" fill-opacity="0.25"/>
</svg>
