<svg width="16" height="16" viewBox="0 0 16 16" fill="none" xmlns="http://www.w3.org/2000/svg">
<path d="M13.6875 7.75C13.6875 8.24219 13.2773 8.65234 12.8125 8.65234H8.875V12.5898C8.875 13.0547 8.46484 13.4375 8 13.4375C7.50781 13.4375 7.125 13.0547 7.125 12.5898V8.65234H3.1875C2.69531 8.65234 2.3125 8.24219 2.3125 7.75C2.3125 7.28516 2.69531 6.90234 3.1875 6.90234H7.125V2.96484C7.125 2.47266 7.50781 2.0625 8 2.0625C8.46484 2.0625 8.875 2.47266 8.875 2.96484V6.90234H12.8125C13.2773 6.875 13.6875 7.28516 13.6875 7.75Z" fill="#3E3232" fill-opacity="0.5"/>
</svg>
