<svg width="21" height="21" viewBox="0 0 21 21" fill="none" xmlns="http://www.w3.org/2000/svg">
<path d="M20.1562 17.9297L15.4688 13.2422C16.5234 11.6797 17.0703 9.72656 16.7969 7.61719C16.2891 4.02344 13.3594 1.13281 9.80469 0.664062C4.49219 0 0 4.49219 0.664062 9.80469C1.13281 13.3594 4.02344 16.2891 7.61719 16.7969C9.72656 17.0703 11.6797 16.5234 13.2812 15.4688L17.9297 20.1562C18.5547 20.7422 19.5312 20.7422 20.1562 20.1562C20.7422 19.5312 20.7422 18.5547 20.1562 17.9297ZM3.71094 8.71094C3.71094 5.97656 5.9375 3.71094 8.71094 3.71094C11.4453 3.71094 13.7109 5.97656 13.7109 8.71094C13.7109 11.4844 11.4453 13.7109 8.71094 13.7109C5.9375 13.7109 3.71094 11.4844 3.71094 8.71094Z" fill="#3E3232"/>
</svg>
