<svg width="40" height="32" viewBox="0 0 40 32" fill="none" xmlns="http://www.w3.org/2000/svg">
<path d="M24.5 24.625C23.875 25.1875 22.9375 25.1875 22.375 24.5625C21.9375 24.0625 21.125 23.5 20 23.5C18.8125 23.5 18 24.0625 17.5625 24.5625C17 25.1875 16.0625 25.1875 15.4375 24.625C14.8125 24.0625 14.8125 23.125 15.375 22.5C16.25 21.5625 17.8125 20.5 20 20.5C22.125 20.5 23.6875 21.5625 24.5625 22.5C25.125 23.125 25.125 24.0625 24.5 24.625ZM13 15C13 14.5 13.1875 14 13.5625 13.625L11.625 13C11.125 12.8125 10.875 12.25 11 11.6875C11.1875 11.1875 11.75 10.875 12.3125 11.0625L18.3125 13.0625C18.8125 13.25 19.0625 13.8125 18.9375 14.375C18.75 14.875 18.1875 15.125 17.625 15L17 14.75C17 14.8125 17 14.9375 17 15C17 16.125 16.125 17 15 17C13.875 17 13 16.125 13 15ZM27 15C27 16.125 26.125 17 25 17C23.875 17 23 16.125 23 15C23 14.9375 23 14.8125 23 14.75L22.3125 15C21.75 15.125 21.1875 14.875 21 14.375C20.875 13.8125 21.125 13.25 21.625 13.0625L27.625 11.0625C28.1875 10.875 28.75 11.1875 28.9375 11.6875C29.0625 12.25 28.8125 12.8125 28.3125 13L26.375 13.625C26.75 13.9375 27 14.5 27 15ZM4 16C4 7.1875 11.125 0 20 0C28.8125 0 36 7.1875 36 16C36 24.875 28.8125 32 20 32C11.125 32 4 24.875 4 16ZM20 29C27.125 29 33 23.1875 33 16C33 8.875 27.125 3 20 3C12.8125 3 7 8.875 7 16C7 23.1875 12.8125 29 20 29Z" fill="#FC5C65"/>
</svg>
