<svg width="18" height="16" viewBox="0 0 18 16" fill="none" xmlns="http://www.w3.org/2000/svg">
<path d="M11.4297 1.87109L7.92969 14.1211C7.79297 14.5859 7.32812 14.8594 6.86328 14.7227C6.39844 14.5859 6.125 14.1211 6.26172 13.6562L9.76172 1.40625C9.89844 0.941406 10.3633 0.667969 10.8281 0.804688C11.293 0.941406 11.5664 1.40625 11.4297 1.87109ZM14.2734 4.08594L17.3359 7.14844C17.6914 7.47656 17.6914 8.05078 17.3359 8.37891L14.2734 11.4414C13.9453 11.7969 13.3711 11.7969 13.043 11.4414C12.6875 11.1133 12.6875 10.5391 13.043 10.2109L15.4766 7.75L13.043 5.31641C12.6875 4.98828 12.6875 4.41406 13.043 4.08594C13.3711 3.73047 13.9453 3.73047 14.2734 4.08594ZM4.64844 5.31641L2.21484 7.75L4.64844 10.2109C5.00391 10.5391 5.00391 11.1133 4.64844 11.4414C4.32031 11.7969 3.74609 11.7969 3.41797 11.4414L0.355469 8.37891C0 8.05078 0 7.47656 0.355469 7.14844L3.41797 4.08594C3.74609 3.73047 4.32031 3.73047 4.64844 4.08594C5.00391 4.41406 5.00391 4.98828 4.64844 5.31641Z" fill="#3E3232" fill-opacity="0.5"/>
</svg>
