<svg width="88" height="40" viewBox="0 0 88 40" fill="none" xmlns="http://www.w3.org/2000/svg">
<rect x="48" width="40" height="40" rx="12" fill="#3E3232" fill-opacity="0.05"/>
<circle cx="73" cy="15" r="1.5" fill="#3E3232"/>
<circle cx="68" cy="15" r="1.5" fill="#3E3232"/>
<circle cx="63" cy="15" r="1.5" fill="#3E3232"/>
<circle cx="73" cy="25" r="1.5" fill="#3E3232"/>
<circle cx="68" cy="25" r="1.5" fill="#3E3232"/>
<circle cx="63" cy="25" r="1.5" fill="#3E3232"/>
<circle cx="73" cy="20" r="1.5" fill="#3E3232"/>
<circle cx="68" cy="20" r="1.5" fill="#3E3232"/>
<circle cx="63" cy="20" r="1.5" fill="#3E3232"/>
<rect width="40" height="40" rx="12" fill="#F5F5F5"/>
<path d="M12.5 15C12.5 14.1875 13.1562 13.5 14 13.5C14.8125 13.5 15.5 14.1875 15.5 15C15.5 15.8438 14.8125 16.5 14 16.5C13.1562 16.5 12.5 15.8438 12.5 15ZM27 14C27.5312 14 28 14.4688 28 15C28 15.5625 27.5312 16 27 16H18C17.4375 16 17 15.5625 17 15C17 14.4688 17.4375 14 18 14H27ZM27 19C27.5312 19 28 19.4688 28 20C28 20.5625 27.5312 21 27 21H18C17.4375 21 17 20.5625 17 20C17 19.4688 17.4375 19 18 19H27ZM27 24C27.5312 24 28 24.4688 28 25C28 25.5625 27.5312 26 27 26H18C17.4375 26 17 25.5625 17 25C17 24.4688 17.4375 24 18 24H27ZM12.5 25C12.5 24.1875 13.1562 23.5 14 23.5C14.8125 23.5 15.5 24.1875 15.5 25C15.5 25.8438 14.8125 26.5 14 26.5C13.1562 26.5 12.5 25.8438 12.5 25ZM15.5 20C15.5 20.8438 14.8125 21.5 14 21.5C13.1562 21.5 12.5 20.8438 12.5 20C12.5 19.1875 13.1562 18.5 14 18.5C14.8125 18.5 15.5 19.1875 15.5 20Z" fill="#3E3232"/>
</svg>
