<svg width="120" height="96" viewBox="0 0 120 96" fill="none" xmlns="http://www.w3.org/2000/svg">
<path d="M98.8125 6H20.8125C15.9375 6 12 10.125 12 15V81C12 86.0625 15.9375 90 20.8125 90H98.8125C103.688 90 107.812 86.0625 107.812 81V15C107.812 10.125 103.875 6 98.8125 6ZM32.8125 76.5C32.8125 77.4375 32.0625 78 31.3125 78H22.3125C21.375 78 20.8125 77.4375 20.8125 76.5V67.5C20.8125 66.75 21.375 66 22.3125 66H31.125C31.875 66 32.625 66.75 32.625 67.5L32.8125 76.5ZM32.8125 52.5C32.8125 53.4375 32.0625 54 31.3125 54H22.3125C21.375 54 20.8125 53.4375 20.8125 52.5V43.5C20.8125 42.75 21.375 42 22.3125 42H31.125C31.875 42 32.625 42.75 32.625 43.5V52.5H32.8125ZM32.8125 28.5C32.8125 29.4375 32.0625 30 31.3125 30H22.3125C21.375 30 20.8125 29.4375 20.8125 28.5V19.5C20.8125 18.75 21.375 18 22.3125 18H31.125C31.875 18 32.625 18.75 32.625 19.5L32.8125 28.5ZM77.8125 75C77.8125 76.6875 76.3125 78 74.8125 78H44.8125C43.125 78 41.8125 76.6875 41.8125 75V57C41.8125 55.5 43.125 54 44.8125 54H74.8125C76.3125 54 77.8125 55.5 77.8125 57V75ZM77.8125 39C77.8125 40.6875 76.3125 42 74.8125 42H44.8125C43.125 42 41.8125 40.6875 41.8125 39V21C41.8125 19.5 43.125 18 44.8125 18H74.8125C76.3125 18 77.8125 19.5 77.8125 21V39ZM98.8125 76.5C98.8125 77.4375 98.0625 78 97.3125 78H88.5C87.5625 78 87 77.4375 87 76.5V67.5C87 66.75 87.75 66 88.5 66H97.5C98.25 66 99 66.75 99 67.5V76.5H98.8125ZM98.8125 52.5C98.8125 53.4375 98.0625 54 97.3125 54H88.5C87.5625 54 87 53.4375 87 52.5V43.5C87 42.75 87.5625 42 88.5 42H97.3125C98.0625 42 98.8125 42.75 98.8125 43.5V52.5ZM98.8125 28.5C98.8125 29.4375 98.0625 30 97.3125 30H88.5C87.5625 30 87 29.4375 87 28.5V19.5C87 18.75 87.5625 18 88.3125 18H97.125C97.875 18 98.625 18.75 98.625 19.5V28.5H98.8125Z" fill="#3E3232" fill-opacity="0.25"/>
</svg>
